<?xml version="1.0" encoding="UTF-8" standalone="no"?>
<!DOCTYPE svg PUBLIC "-//W3C//DTD SVG 20010904//EN"
              "http://www.w3.org/TR/2001/REC-SVG-20010904/DTD/svg10.dtd">

<svg xmlns="http://www.w3.org/2000/svg"
     width="16.6667in" height="16.6667in"
     viewBox="0 0 1200 1200">
  <path id="Selection"
        fill="#00afdb" stroke="#00afdb" stroke-width="1"
        d="M 567.00,0.21
           C 567.00,0.21 622.00,0.21 622.00,0.21
             622.00,0.21 635.00,0.96 635.00,0.96
             669.30,2.46 703.57,7.90 737.00,15.77
             945.10,64.74 1114.71,225.06 1173.42,431.00
             1183.72,467.12 1190.43,502.65 1194.17,540.00
             1194.17,540.00 1196.00,561.00 1196.00,561.00
             1196.00,561.00 1197.00,580.00 1197.00,580.00
             1197.00,580.00 1197.00,619.00 1197.00,619.00
             1197.00,619.00 1196.00,636.00 1196.00,636.00
             1196.00,636.00 1195.09,646.00 1195.09,646.00
             1195.09,646.00 1191.28,682.00 1191.28,682.00
             1186.31,719.78 1176.08,762.10 1163.31,798.00
             1098.76,979.41 952.06,1119.47 767.00,1173.58
             725.19,1185.80 679.49,1194.14 636.00,1196.04
             636.00,1196.04 623.00,1197.00 623.00,1197.00
             623.00,1197.00 571.00,1197.00 571.00,1197.00
             571.00,1197.00 561.00,1196.09 561.00,1196.09
             561.00,1196.09 547.00,1195.17 547.00,1195.17
             498.26,1190.45 453.57,1181.86 407.00,1166.33
             346.40,1146.13 291.38,1116.69 240.00,1078.85
             124.49,993.77 42.58,865.15 12.79,725.00
             6.72,696.47 2.91,668.06 0.91,639.00
             0.91,639.00 0.00,629.00 0.00,629.00
             0.00,629.00 0.00,570.00 0.00,570.00
             0.00,570.00 0.91,558.00 0.91,558.00
             0.91,558.00 3.84,526.00 3.84,526.00
             10.46,464.09 29.37,401.48 55.31,345.00
             122.25,199.21 250.80,84.82 402.00,32.34
             438.41,19.71 476.80,10.43 515.00,5.28
             515.00,5.28 553.00,1.17 553.00,1.17
             553.00,1.17 567.00,0.21 567.00,0.21 Z
           M 544.00,143.24
           C 539.40,144.05 536.23,144.69 532.00,146.81
             514.54,155.54 516.00,170.56 516.00,187.00
             516.00,187.00 516.00,212.00 516.00,212.00
             516.00,212.00 516.00,427.00 516.00,427.00
             516.21,444.39 529.90,459.19 548.00,457.82
             566.08,456.45 575.97,443.42 575.93,426.00
             575.93,426.00 575.93,207.00 575.93,207.00
             575.93,207.00 575.93,184.00 575.93,184.00
             575.93,184.00 575.93,168.00 575.93,168.00
             574.24,158.12 567.27,149.20 558.00,145.48
             555.46,144.46 550.73,143.39 548.00,143.24
             548.00,143.24 544.00,143.24 544.00,143.24 Z
           M 742.00,143.29
           C 738.22,143.92 735.52,144.46 732.00,146.13
             712.08,155.62 715.00,172.75 715.00,191.00
             715.00,191.00 715.00,238.00 715.00,238.00
             715.00,238.00 715.00,540.00 715.00,540.00
             715.01,546.41 715.40,550.12 718.38,556.00
             727.51,574.09 752.78,576.91 766.82,562.82
             773.09,556.52 774.99,548.56 775.00,540.00
             775.00,540.00 775.00,233.00 775.00,233.00
             775.00,233.00 775.00,175.00 775.00,175.00
             774.97,155.84 761.69,141.60 742.00,143.29 Z
           M 444.00,200.29
           C 440.11,200.93 436.57,201.59 433.00,203.38
             416.39,211.69 417.00,224.28 417.00,240.00
             417.00,240.00 417.00,263.00 417.00,263.00
             417.00,263.00 417.00,458.00 417.00,458.00
             417.21,475.23 431.42,486.37 448.00,485.99
             467.06,485.55 476.97,470.78 477.00,453.00
             477.00,453.00 477.00,311.00 477.00,311.00
             477.00,311.00 477.00,232.00 477.00,232.00
             476.78,213.14 463.39,198.87 444.00,200.29 Z
           M 640.00,229.30
           C 622.43,232.74 615.20,246.15 615.00,263.00
             615.00,263.00 615.00,350.00 615.00,350.00
             615.00,350.00 615.00,507.00 615.00,507.00
             615.03,527.58 624.45,543.51 647.00,542.99
             666.67,542.53 675.97,527.04 676.00,509.00
             676.00,509.00 676.00,263.00 676.00,263.00
             675.96,240.43 662.94,227.01 640.00,229.30 Z
           M 342.00,286.30
           C 326.20,289.39 317.19,301.13 317.00,317.00
             317.00,317.00 317.00,481.00 317.00,481.00
             317.03,499.36 326.63,513.35 346.00,514.82
             359.61,515.85 372.87,506.08 376.24,493.00
             377.10,489.68 376.99,487.36 377.00,484.00
             377.00,484.00 377.00,317.00 377.00,317.00
             376.97,295.73 362.78,284.23 342.00,286.30 Z
           M 839.00,286.41
           C 822.40,289.55 814.20,301.62 814.00,318.00
             814.00,318.00 814.00,480.00 814.00,480.00
             814.02,495.37 819.89,509.11 836.00,513.51
             839.02,514.34 842.88,515.05 846.00,514.82
             867.30,513.20 874.97,497.18 875.00,478.00
             875.00,478.00 875.00,323.00 875.00,323.00
             874.97,305.86 869.82,290.53 851.00,286.41
             847.28,285.72 842.77,285.92 839.00,286.41 Z
           M 742.00,599.29
           C 734.89,600.47 728.62,602.41 723.09,607.33
             707.87,620.88 709.48,646.53 726.00,658.37
             733.18,663.51 742.36,664.98 751.00,663.70
             772.08,660.59 783.14,636.81 774.65,618.00
             768.95,605.36 755.66,598.12 742.00,599.29 Z
           M 339.00,881.00
           C 339.00,881.00 320.00,862.00 320.00,862.00
             318.12,860.14 314.82,856.31 312.00,856.34
             309.68,856.36 306.74,859.16 305.00,860.58
             300.47,864.24 296.24,867.55 291.00,870.19
             269.21,881.16 243.08,878.47 226.17,859.99
             194.70,825.59 213.42,763.29 263.00,761.10
             273.97,760.62 286.85,765.49 296.00,771.23
             298.94,773.07 308.42,780.88 310.96,780.82
             313.58,780.75 316.39,776.85 318.00,775.00
             318.00,775.00 331.95,759.00 331.95,759.00
             333.78,756.88 336.61,754.09 335.70,751.00
             334.49,746.89 322.93,738.79 319.00,736.45
             298.14,724.01 280.51,722.73 257.00,723.00
             250.24,723.08 243.53,724.49 237.00,726.13
             196.70,736.25 167.49,773.39 167.00,815.00
             166.68,842.36 174.66,869.51 195.01,888.91
             206.26,899.63 220.07,907.36 235.00,911.57
             270.10,921.48 316.91,911.85 339.00,881.00 Z
           M 506.00,746.00
           C 493.38,738.10 491.02,735.04 476.00,729.69
             441.60,717.45 391.20,719.98 375.45,759.00
             373.24,764.47 372.07,770.10 372.00,776.00
             371.91,783.64 371.82,790.56 374.04,798.00
             381.22,822.07 405.38,829.56 427.00,835.58
             436.24,838.15 451.94,841.98 460.00,846.32
             466.51,849.83 470.62,854.18 469.89,862.00
             468.75,874.31 452.27,878.49 442.00,877.91
             428.49,877.14 415.56,872.44 404.00,865.55
             404.00,865.55 388.00,855.00 388.00,855.00
             388.00,855.00 371.75,875.00 371.75,875.00
             370.09,877.00 366.08,881.36 365.87,883.91
             365.59,887.40 372.42,891.74 375.00,893.56
             384.33,900.13 397.03,906.28 408.00,909.42
             432.67,916.49 464.40,917.99 487.00,903.94
             492.59,900.46 498.38,895.36 502.21,890.00
             513.29,874.52 515.40,847.74 506.10,831.00
             503.54,826.40 499.03,821.68 495.00,818.32
             480.98,806.64 461.12,802.62 444.00,797.71
             437.10,795.73 425.64,792.52 420.02,788.37
             418.31,787.11 416.90,785.74 415.70,783.98
             407.36,771.76 421.35,759.15 438.00,760.09
             448.25,760.67 459.95,764.56 469.00,769.32
             474.70,772.32 479.61,776.70 486.00,778.00
             490.84,769.38 504.04,754.03 506.00,746.00 Z
           M 919.00,723.28
           C 881.58,728.78 853.10,746.84 838.45,783.00
             832.70,797.21 831.83,809.93 832.00,825.00
             832.08,831.28 833.35,837.92 834.87,844.00
             842.75,875.51 865.20,899.40 896.00,909.67
             904.49,912.50 915.03,914.89 924.00,915.00
             944.23,915.23 960.68,913.15 979.00,903.74
             1035.32,874.80 1046.35,795.96 1002.83,751.09
             981.21,728.79 949.23,720.47 919.00,723.28 Z
           M 598.00,726.00
           C 598.00,726.00 556.00,726.00 556.00,726.00
             556.00,726.00 556.00,912.00 556.00,912.00
             556.00,912.00 598.00,912.00 598.00,912.00
             598.00,912.00 598.00,726.00 598.00,726.00 Z
           M 765.00,845.00
           C 773.42,843.42 781.00,837.90 787.00,831.99
             791.33,827.71 794.86,823.46 797.63,818.00
             809.92,793.78 805.43,756.89 783.00,739.90
             764.27,725.71 743.19,726.00 721.00,726.00
             721.00,726.00 649.00,726.00 649.00,726.00
             649.00,726.00 649.00,912.00 649.00,912.00
             649.00,912.00 690.00,912.00 690.00,912.00
             690.00,912.00 690.00,853.00 690.00,853.00
             690.00,853.00 714.00,853.00 714.00,853.00
             724.39,853.07 725.15,859.03 730.72,867.00
             730.72,867.00 752.33,899.00 752.33,899.00
             760.75,911.63 759.65,911.98 769.00,912.00
             769.00,912.00 810.00,912.00 810.00,912.00
             810.00,912.00 765.00,845.00 765.00,845.00 Z
           M 925.00,761.23
           C 925.00,761.23 929.00,761.23 929.00,761.23
             933.76,760.85 940.38,761.94 945.00,763.16
             987.63,774.40 999.72,832.06 968.96,861.91
             959.15,871.43 948.24,875.13 935.00,876.72
             929.86,877.33 926.99,876.70 922.00,876.00
             886.28,870.95 868.06,832.70 878.04,800.00
             885.11,776.82 901.80,764.93 925.00,761.23 Z
           M 690.00,764.00
           C 690.00,764.00 733.00,764.00 733.00,764.00
             741.19,764.04 749.88,766.08 755.79,772.18
             765.42,782.13 763.63,801.04 752.98,809.47
             747.00,814.22 738.50,815.91 731.00,816.00
             731.00,816.00 690.00,816.00 690.00,816.00
             690.00,816.00 690.00,764.00 690.00,764.00 Z" />
</svg>
