<?xml version="1.0" encoding="UTF-8" standalone="no"?>
<!DOCTYPE svg PUBLIC "-//W3C//DTD SVG 20010904//EN"
              "http://www.w3.org/TR/2001/REC-SVG-20010904/DTD/svg10.dtd">

<svg xmlns="http://www.w3.org/2000/svg"
     width="7.05467mm" height="11.2875mm"
     viewBox="0 0 20 32">
  <path id="hydrophone"
        fill="none" stroke="black" stroke-width="1"
        d="M 0.00,12.00
           C 0.00,12.00 2.00,12.00 2.00,12.00
             2.00,12.00 2.00,14.73 2.00,14.73
             2.00,14.73 2.00,15.95 2.00,15.95
             2.00,15.95 2.01,16.07 2.01,16.07
             2.01,16.07 2.01,16.28 2.01,16.28
             2.01,16.28 2.02,16.40 2.02,16.40
             2.02,16.40 2.03,16.63 2.03,16.63
             2.05,16.89 2.08,17.15 2.13,17.41
             2.27,18.20 2.53,18.98 2.91,19.70
             3.68,21.15 4.85,22.32 6.30,23.09
             7.12,23.52 8.03,23.80 8.94,23.92
             8.94,23.92 9.47,23.98 9.47,23.98
             9.47,23.98 9.55,23.98 9.55,23.98
             9.55,23.98 9.71,23.99 9.71,23.99
             9.71,23.99 9.89,23.99 9.89,23.99
             9.89,23.99 10.01,24.00 10.01,24.00
             10.01,24.00 10.12,23.99 10.12,23.99
             10.12,23.99 10.29,23.99 10.29,23.99
             10.29,23.99 10.45,23.98 10.45,23.98
             10.45,23.98 10.63,23.97 10.63,23.97
             10.63,23.97 10.85,23.95 10.85,23.95
             10.85,23.95 11.38,23.88 11.38,23.88
             12.40,23.71 13.38,23.34 14.24,22.77
             15.00,22.27 15.71,21.62 16.25,20.89
             17.08,19.79 17.63,18.53 17.87,17.18
             17.91,16.90 17.95,16.62 17.97,16.34
             17.97,16.34 17.98,16.11 17.98,16.11
             17.98,16.11 17.99,15.98 17.99,15.98
             17.99,15.98 17.99,15.75 17.99,15.75
             17.99,15.75 18.00,15.62 18.00,15.62
             18.00,15.62 18.00,14.71 18.00,14.71
             18.00,14.71 18.00,12.00 18.00,12.00
             18.00,12.00 20.00,12.00 20.00,12.00
             20.00,12.00 20.00,14.90 20.00,14.90
             20.00,14.90 20.00,16.34 20.00,16.34
             20.00,16.34 19.99,16.46 19.99,16.46
             19.99,16.46 19.99,16.51 19.99,16.51
             19.99,16.51 19.98,16.60 19.98,16.60
             19.98,16.60 19.95,16.99 19.95,16.99
             19.92,17.29 19.88,17.59 19.83,17.89
             19.57,19.25 19.02,20.55 18.23,21.68
             17.30,23.04 16.02,24.15 14.55,24.91
             14.33,25.02 14.11,25.12 13.89,25.22
             13.45,25.41 12.92,25.58 12.45,25.70
             12.45,25.70 12.16,25.77 12.16,25.77
             12.13,25.78 12.03,25.79 12.02,25.80
             12.00,25.82 12.00,25.85 12.00,25.88
             12.00,25.88 12.00,30.00 12.00,30.00
             12.00,30.00 16.00,30.00 16.00,30.00
             16.00,30.00 16.00,32.00 16.00,32.00
             16.00,32.00 4.00,32.00 4.00,32.00
             4.00,32.00 4.00,30.00 4.00,30.00
             4.00,30.00 8.00,30.00 8.00,30.00
             8.00,30.00 8.00,25.88 8.00,25.88
             8.00,25.85 8.00,25.82 7.98,25.80
             7.96,25.79 7.87,25.78 7.84,25.77
             7.84,25.77 7.55,25.70 7.55,25.70
             7.17,25.61 6.79,25.48 6.41,25.34
             6.41,25.34 6.12,25.22 6.12,25.22
             6.12,25.22 5.59,24.98 5.59,24.98
             5.32,24.85 5.06,24.70 4.80,24.55
             3.61,23.82 2.56,22.84 1.77,21.68
             0.95,20.50 0.41,19.19 0.15,17.77
             0.10,17.46 0.05,17.14 0.03,16.83
             0.03,16.83 0.02,16.66 0.02,16.66
             0.02,16.66 0.02,16.59 0.02,16.59
             0.02,16.59 0.01,16.52 0.01,16.52
             0.01,16.52 0.01,16.43 0.01,16.43
             0.01,16.43 0.00,16.34 0.00,16.34
             0.00,16.34 0.00,12.00 0.00,12.00 Z
           M 9.70,0.00
           C 9.70,0.00 10.24,0.00 10.24,0.00
             10.24,0.00 10.39,0.01 10.39,0.01
             10.39,0.01 10.47,0.01 10.47,0.01
             10.47,0.01 10.71,0.04 10.71,0.04
             10.95,0.06 11.19,0.11 11.42,0.16
             13.18,0.58 14.69,1.83 15.45,3.47
             15.61,3.82 15.74,4.18 15.83,4.55
             15.90,4.87 15.96,5.20 15.99,5.53
             15.99,5.53 16.00,5.75 16.00,5.75
             16.00,5.75 16.00,11.00 16.00,11.00
             16.00,11.00 16.00,16.25 16.00,16.25
             16.00,16.25 15.99,16.46 15.99,16.46
             15.96,16.80 15.91,17.12 15.83,17.45
             15.42,19.17 14.18,20.67 12.59,21.42
             12.08,21.66 11.55,21.83 10.99,21.92
             10.82,21.95 10.53,21.99 10.36,21.99
             10.36,21.99 10.24,22.00 10.24,22.00
             10.24,22.00 9.74,22.00 9.74,22.00
             9.74,22.00 9.54,21.99 9.54,21.99
             9.20,21.96 8.86,21.91 8.53,21.82
             7.68,21.61 6.86,21.20 6.18,20.64
             6.18,20.64 5.91,20.41 5.91,20.41
             5.91,20.41 5.81,20.30 5.81,20.30
             5.81,20.30 5.75,20.25 5.75,20.25
             5.75,20.25 5.70,20.19 5.70,20.19
             5.70,20.19 5.59,20.09 5.59,20.09
             5.59,20.09 5.36,19.82 5.36,19.82
             4.81,19.16 4.39,18.32 4.18,17.48
             4.10,17.18 4.05,16.87 4.02,16.55
             4.02,16.55 4.01,16.34 4.01,16.34
             4.01,16.34 4.00,16.25 4.00,16.25
             4.00,16.25 4.00,15.28 4.00,15.28
             4.00,15.28 4.00,13.02 4.00,13.02
             4.00,13.02 4.00,8.24 4.00,8.24
             4.00,8.24 4.00,6.54 4.00,6.54
             4.00,6.54 4.00,5.75 4.00,5.75
             4.00,5.75 4.01,5.65 4.01,5.65
             4.02,5.39 4.05,5.14 4.10,4.89
             4.27,3.92 4.73,2.94 5.36,2.18
             5.36,2.18 5.59,1.91 5.59,1.91
             5.59,1.91 5.70,1.81 5.70,1.81
             5.70,1.81 5.75,1.75 5.75,1.75
             5.75,1.75 5.81,1.70 5.81,1.70
             5.81,1.70 5.92,1.59 5.92,1.59
             6.38,1.17 6.85,0.85 7.41,0.58
             7.88,0.35 8.42,0.18 8.95,0.09
             8.95,0.09 9.40,0.02 9.40,0.02
             9.40,0.02 9.59,0.01 9.59,0.01
             9.59,0.01 9.70,0.00 9.70,0.00 Z" />
</svg>
