<?xml version="1.0" encoding="UTF-8" standalone="no"?>
<!DOCTYPE svg PUBLIC "-//W3C//DTD SVG 20010904//EN"
              "http://www.w3.org/TR/2001/REC-SVG-20010904/DTD/svg10.dtd">

<svg xmlns="http://www.w3.org/2000/svg"
     width="1.11111in" height="1.11111in"
     viewBox="0 0 100 100">
  <path id="Selection"
        fill="black" stroke="black" stroke-width="1"
        d="M 1.74,33.99
           C 6.02,32.13 20.52,33.00 26.00,33.00
             26.00,33.00 79.00,33.00 79.00,33.00
             82.65,33.00 96.84,32.05 98.83,34.57
             100.25,36.38 100.00,40.74 100.00,43.00
             100.00,43.00 100.00,59.00 100.00,59.00
             99.97,61.15 100.11,64.52 98.26,66.01
             96.72,67.25 92.94,67.00 91.00,67.00
             91.00,67.00 22.00,67.00 22.00,67.00
             22.00,67.00 7.00,67.00 7.00,67.00
             5.04,66.96 2.53,67.15 1.17,65.43
             -0.25,63.62 0.00,59.26 0.00,57.00
             -0.01,51.36 -1.30,38.25 1.74,33.99 Z" />
</svg>
