<?xml version="1.0" encoding="UTF-8" standalone="no"?>
<!DOCTYPE svg PUBLIC "-//W3C//DTD SVG 20010904//EN"
              "http://www.w3.org/TR/2001/REC-SVG-20010904/DTD/svg10.dtd">

<svg xmlns="http://www.w3.org/2000/svg"
     width="3in" height="3in"
     viewBox="0 0 900 900">
  <path id="Selection"
        fill="black" stroke="black" stroke-width="1"
        d="M 448.00,491.00
           C 420.70,491.00 395.42,486.40 370.00,476.20
             343.23,465.46 318.61,449.15 298.01,428.96
             232.05,364.30 217.50,259.46 259.26,178.00
             274.21,148.84 296.66,123.09 323.00,103.73
             355.18,80.08 398.82,63.47 439.00,63.00
             439.00,63.00 450.00,62.08 450.00,62.08
             450.00,62.08 466.00,63.00 466.00,63.00
             486.53,63.24 518.25,72.24 537.00,80.70
             562.36,92.13 585.66,107.82 604.96,128.00
             671.38,197.43 682.60,300.74 636.14,384.00
             609.11,432.44 561.24,468.77 508.00,483.58
             493.03,487.74 484.19,488.92 469.00,490.72
             462.81,491.45 458.18,490.24 452.00,492.00
             452.00,492.00 475.00,493.00 475.00,493.00
             475.00,493.00 485.00,493.91 485.00,493.91
             513.81,496.02 542.48,501.87 570.00,510.66
             674.37,543.98 756.73,614.42 806.74,712.00
             822.50,742.75 833.19,776.34 840.58,810.00
             840.58,810.00 844.72,834.00 844.72,834.00
             844.72,834.00 847.00,850.00 847.00,850.00
             847.00,850.00 794.00,850.00 794.00,850.00
             791.69,850.00 787.60,850.38 786.02,848.40
             784.96,847.07 783.97,838.26 783.59,836.00
             783.59,836.00 777.37,807.00 777.37,807.00
             766.28,762.64 744.08,717.72 715.55,682.00
             665.50,619.35 595.86,575.22 517.00,559.45
             487.93,553.63 464.43,552.66 435.00,553.00
             435.00,553.00 425.00,553.91 425.00,553.91
             403.01,555.45 381.23,559.13 360.00,565.14
             307.72,579.95 260.84,605.85 221.00,642.91
             205.20,657.61 190.33,673.40 177.71,691.00
             150.69,728.69 133.13,764.99 121.87,810.00
             121.87,810.00 116.25,837.00 116.25,837.00
             115.89,839.15 115.01,847.11 113.98,848.40
             112.40,850.38 108.31,850.00 106.00,850.00
             106.00,850.00 53.00,850.00 53.00,850.00
             53.00,850.00 55.13,835.00 55.13,835.00
             55.13,835.00 59.00,812.00 59.00,812.00
             64.24,786.32 72.02,761.22 82.01,737.00
             123.77,635.78 207.77,555.98 310.00,517.42
             338.43,506.70 369.85,499.04 400.00,495.28
             400.00,495.28 426.00,493.00 426.00,493.00
             432.02,492.97 442.37,492.60 448.00,491.00 Z
           M 439.00,123.28
           C 425.19,125.27 415.67,125.96 402.00,130.51
             359.72,144.60 327.85,173.50 309.31,214.00
             299.58,235.23 295.73,258.80 296.00,282.00
             296.09,289.14 297.78,300.88 299.20,308.00
             310.03,362.39 349.43,406.02 402.00,423.33
             413.89,427.24 433.53,430.85 446.00,431.00
             469.66,431.27 493.44,426.56 515.00,416.69
             530.30,409.69 546.06,398.82 558.00,387.00
             612.28,333.27 619.04,249.24 575.28,187.00
             567.08,175.33 555.32,163.30 544.00,154.65
             529.40,143.50 511.67,134.37 494.00,129.29
             476.98,124.40 456.68,121.64 439.00,123.28 Z" />
</svg>
