<?xml version="1.0" encoding="UTF-8" standalone="no"?>
<!DOCTYPE svg PUBLIC "-//W3C//DTD SVG 20010904//EN"
              "http://www.w3.org/TR/2001/REC-SVG-20010904/DTD/svg10.dtd">

<!-- value of fill was rgb(74, 173, 35) -->
<svg xmlns="http://www.w3.org/2000/svg"
     width="14.1844mm" height="14.1844mm"
     viewBox="0 0 32 32">
  <path id="Selection"
        fill="black" stroke="black" stroke-width="1"
        d="M 11.62,11.62
           C 11.62,11.62 11.62,2.50 11.62,2.50
             11.63,0.78 12.22,0.00 14.00,0.00
             14.00,0.00 18.00,0.00 18.00,0.00
             19.78,0.00 20.37,0.78 20.38,2.50
             20.38,2.50 20.38,11.62 20.38,11.62
             20.38,11.62 29.50,11.62 29.50,11.62
             31.22,11.63 32.00,12.22 32.00,14.00
             32.00,14.00 32.00,18.00 32.00,18.00
             32.00,19.78 31.22,20.37 29.50,20.38
             29.50,20.38 20.38,20.38 20.38,20.38
             20.38,20.38 20.38,29.50 20.38,29.50
             20.37,31.22 19.78,32.00 18.00,32.00
             18.00,32.00 14.00,32.00 14.00,32.00
             12.22,32.00 11.63,31.22 11.62,29.50
             11.62,29.50 11.62,20.38 11.62,20.38
             11.62,20.38 2.50,20.38 2.50,20.38
             0.78,20.37 0.00,19.78 0.00,18.00
             0.00,18.00 0.00,14.00 0.00,14.00
             0.00,12.22 0.78,11.63 2.50,11.62
             2.50,11.62 11.62,11.62 11.62,11.62 Z" />
</svg>
